<?xml version="1.0" encoding="UTF-8"?>
<svg id="outline" xmlns="http://www.w3.org/2000/svg" version="1.1" viewBox="0 0 1000 1000">
  <!-- Generator: Adobe Illustrator 29.1.0, SVG Export Plug-In . SVG Version: 2.1.0 Build 142)  -->
  <defs>
    <style>
      .st0 {
        fill: none;
      }

      .st0, .st1 {
        stroke: #1d1d1b;
        stroke-miterlimit: 10;
        stroke-width: 11px;
      }

      .st1 {
        fill: #312783;
      }
    </style>
  </defs>
  <path class="st1" d="M687.67,339c-24.03-20.36-30.29-46.97-32-56l-108-44.67c3.72-9.59,8.18-24.05,9.33-42,1.64-25.6-4.01-50.02-8-50-3.31.02-2.33,16.87-13.33,38-5.86,11.25-12.86,19.39-18.07,24.67-.52-8.02-1.46-20.06-3.27-34.67-3.21-25.96-4.91-38.96-9.33-40-7.64-1.78-17.74,24.97-35.33,54.67-19.37,32.7-40.08,55.91-54,70-22.56,4.45-49.81,11.89-79.34,24.67-20.04,8.67-37.38,18.18-52,27.33,6.89,2,13.78,4,20.67,6-14.11,10.25-32.56,25.95-50,48.67-15.31,19.93-25.08,39.08-31.33,54,8.22-2.23,16.44-4.45,24.66-6.67-3.12,16.35-5.38,39.64-.66,66.67,10.15,58.2,45.86,94.87,60.35,108.24l42.31-61.58h-21.15c10.87-12.81,29-31.12,55.82-46.66,27.69-16.05,53.41-22.64,70.19-25.58-2.78-1.17-22.91-9.98-29.52-32.42-5.02-17.04.9-31.29,2.66-35.17h-35.33c7.34-7.39,21.2-19.34,42-26.83,14.81-5.34,27.99-6.55,37.09-6.64-9.21-3.26-18.42-6.51-27.62-9.76,27.73-2.31,55.46-4.63,83.2-6.94,2.27-7.75,6.77-19.67,16-32,9.4-12.55,19.79-20.31,26.66-24.66,9.35-.67,38.89-1.6,67.34,18,20.25,13.95,30.33,31.68,34.66,40.66,13.35,5.22,26.69,10.44,40.03,15.67-7.43-3.07-16.14-7.75-24.69-15ZM492.33,249l-42.66,24c27.64-69.79,44.42-103.79,50.33-102,4.89,1.48,2.33,27.48-7.67,78Z"/>
  <path class="st0" d="M492.33,249l-42.66,24c27.64-69.79,44.42-103.79,50.33-102,4.89,1.48,2.33,27.48-7.67,78Z"/>
  <path class="st1" d="M807,400.33c-2.1,10.94-7.65,31.56-24,51.34-9.98,12.07-20.71,19.86-28.67,24.66-49.11,4.23-98.22,8.45-147.33,12.67-6.56.19-35.08,1.72-58,24.67-17.41,17.42-21.99,37.6-23.33,45.33,4.31,11.92,11.88,28.46,25.33,45.33,18.74,23.52,39.98,36.5,52.99,43.12-9.32,1.63-18.65,3.26-27.97,4.89-16.46-1.11-49.79-5.66-83.69-28.01-23.87-15.73-38.85-34.25-47.33-46.66.76-8.51,3.08-21.78,10.67-36,12.2-22.89,30.69-34.43,38.91-38.9-12.97.75-25.94,1.49-38.91,2.23,10.15-9.41,26.24-21.99,48.66-31.33,14.32-5.97,27.46-9.04,38-10.67h186.67c8.84-2.8,23.99-8.96,38-22.67,7.95-7.77,13.22-15.72,16.67-22,.33-2.95.66-9.51-2.67-16.66-4.57-9.81-12.89-14.04-15.33-15.17,3.7-1.78,7.39-3.55,11.09-5.33-21.39-9.03-42.8-18.06-64.2-27.09,3.92,1.6,7.47,2.75,10.44,3.59,12.6,2.77,29.27,7.79,47.33,17.33,15.66,8.26,27.81,17.51,36.67,25.33Z"/>
  <path class="st0" d="M783.67,418.33c-3.45,6.28-8.72,14.23-16.67,22-14.01,13.71-29.16,19.87-38,22.67h-186.67c-10.54,1.63-23.68,4.7-38,10.67-22.42,9.34-38.51,21.92-48.66,31.33,12.97-.74,25.94-1.48,38.91-2.23-8.22,4.47-26.71,16.01-38.91,38.9-7.59,14.22-9.91,27.49-10.67,36,8.48,12.41,23.46,30.93,47.33,46.66,33.9,22.35,67.23,26.9,83.69,28.01-12.96,2.27-25.91,4.53-38.86,6.8-23.79,1.73-54.37,1.43-88.97-5.41-18.3-3.62-34.57-8.45-48.65-13.55-14.09-5.11-30.55-12.23-48.11-22.27-17.47-9.99-31.9-20.49-43.41-30l42.31-61.58h-21.15c10.87-12.81,29-31.12,55.82-46.66,27.69-16.05,53.41-22.64,70.19-25.58-2.78-1.17-22.91-9.98-29.52-32.42-5.02-17.04.9-31.29,2.66-35.17h-35.33c7.34-7.39,21.2-19.34,42-26.83,14.81-5.34,27.99-6.55,37.09-6.64-9.21-3.26-18.42-6.51-27.62-9.76,27.73-2.31,55.46-4.63,83.2-6.94,2.27-7.75,6.77-19.67,16-32,9.4-12.55,19.79-20.31,26.66-24.66,9.35-.67,38.89-1.6,67.34,18,20.25,13.95,30.33,31.68,34.66,40.66,13.35,5.22,26.69,10.44,40.03,15.67.07.03.13.06.2.08,21.4,9.03,42.81,18.06,64.2,27.09-3.7,1.78-7.39,3.55-11.09,5.33,2.44,1.13,10.76,5.36,15.33,15.17,3.33,7.15,3,13.71,2.67,16.66Z"/>
  <path class="st0" d="M783.67,418.33c-3.45,6.28-8.72,14.23-16.67,22-14.01,13.71-29.16,19.87-38,22.67h-186.67c-10.54,1.63-23.68,4.7-38,10.67-22.42,9.34-38.51,21.92-48.66,31.33,12.97-.74,25.94-1.48,38.91-2.23-8.22,4.47-26.71,16.01-38.91,38.9-7.59,14.22-9.91,27.49-10.67,36,8.48,12.41,23.46,30.93,47.33,46.66,33.9,22.35,67.23,26.9,83.69,28.01-21.01,2.56-42.01,5.11-63.02,7.66l-64.81-6.27-48.65-13.55-48.11-22.27-43.41-30,42.31-61.58h-21.15c10.87-12.81,29-31.12,55.82-46.66,27.69-16.05,53.41-22.64,70.19-25.58-2.78-1.17-22.91-9.98-29.52-32.42-5.02-17.04.9-31.29,2.66-35.17h-35.33c7.34-7.39,21.2-19.34,42-26.83,14.81-5.34,27.99-6.55,37.09-6.64-9.21-3.26-18.42-6.51-27.62-9.76,27.73-2.31,55.46-4.63,83.2-6.94,2.27-7.75,6.77-19.67,16-32,9.4-12.55,19.79-20.31,26.66-24.66,9.35-.67,38.89-1.6,67.34,18,20.25,13.95,30.33,31.68,34.66,40.66,13.35,5.22,26.69,10.44,40.03,15.67.07.03.13.06.2.08,21.4,9.03,42.81,18.06,64.2,27.09-3.7,1.78-7.39,3.55-11.09,5.33,2.44,1.13,10.76,5.36,15.33,15.17,3.33,7.15,3,13.71,2.67,16.66Z"/>
  <path class="st0" d="M492.33,249l-42.66,24c27.64-69.79,44.42-103.79,50.33-102,4.89,1.48,2.33,27.48-7.67,78Z"/>
  <path class="st0" d="M581.89,322.33c4.83,5.25,17.54,17.66,38.22,22.67,15.6,3.78,28.69,1.64,35.56,0-4.51-5.21-13.61-14.26-28-20-20.71-8.26-39.17-4.39-45.78-2.67Z"/>
  <path class="st1" d="M468.01,693c-65.45,0-118.5,50.82-118.5,113.5s53.05,113.5,118.5,113.5,118.5-50.82,118.5-113.5-53.05-113.5-118.5-113.5ZM445.61,767.36c.51-19.77,6.57-47.97,15.8-48.58,9.3-.62,21.6,26.86,21.33,52.44-.26,24.52-12.11,51.27-21.33,50.67-9.62-.63-16.41-30.99-15.8-54.53ZM392.51,739.67c8.27-3.23,25.05,15.71,32.44,34.22,7.67,19.19,7.96,44.71-.44,48-7.83,3.06-22.53-13.47-29.78-28-10.77-21.6-11.08-50.76-2.22-54.22ZM507.62,884.11c-8.33,4.19-22.56,9.66-42.67,9.78-10.33-.3-26.99-2.29-44-12-4.45-2.54-26.26-15-24-24.89,1.62-7.05,14.74-9.61,31.56-12.89,16.04-3.13,29.65-3.66,39.11-3.55,7.91,1.43,19.72,4.16,33.33,9.77,13.39,5.52,25.08,10.35,25.34,17.34.25,6.94-10.91,12.55-18.67,16.44ZM544.07,795.22c-8.09,19.33-26.18,38.23-34.67,34.67-9.38-3.94-7.35-35.39,3.55-58.67,6.7-14.29,20.83-34.23,29.34-31.55,9.26,2.91,11.43,32.47,1.78,55.55Z"/>
  <path class="st0" d="M424.51,821.89c-7.83,3.06-22.53-13.47-29.78-28-10.77-21.6-11.08-50.76-2.22-54.22,8.27-3.23,25.05,15.71,32.44,34.22,7.67,19.19,7.96,44.71-.44,48Z"/>
  <path class="st0" d="M482.73,771.22c-.26,24.52-12.11,51.27-21.33,50.67-9.62-.63-16.41-30.99-15.8-54.53.51-19.77,6.57-47.97,15.8-48.58,9.3-.62,21.6,26.86,21.33,52.44Z"/>
  <path class="st0" d="M526.3,867.67c.25,6.94-10.91,12.55-18.67,16.44-8.33,4.19-22.56,9.66-42.67,9.78-10.33-.3-26.99-2.29-44-12-4.45-2.54-26.26-15-24-24.89,1.62-7.05,14.74-9.61,31.56-12.89,16.04-3.13,29.65-3.66,39.11-3.55,7.91,1.43,19.72,4.16,33.33,9.77,13.39,5.52,25.08,10.35,25.34,17.34Z"/>
  <path class="st0" d="M544.07,795.22c-8.09,19.33-26.18,38.23-34.67,34.67-9.38-3.94-7.35-35.39,3.55-58.67,6.7-14.29,20.83-34.23,29.34-31.55,9.26,2.91,11.43,32.47,1.78,55.55Z"/>
  <path class="st0" d="M526.3,867.67c.25,6.94-10.91,12.55-18.67,16.44-8.33,4.19-22.56,9.66-42.67,9.78-10.33-.3-26.99-2.29-44-12-4.45-2.54-26.26-15-24-24.89,1.62-7.05,14.74-9.61,31.56-12.89,16.04-3.13,29.65-3.66,39.11-3.55,7.91,1.43,19.72,4.16,33.33,9.77,13.39,5.52,25.08,10.35,25.34,17.34Z"/>
  <path class="st0" d="M424.51,821.89c-7.83,3.06-22.53-13.47-29.78-28-10.77-21.6-11.08-50.76-2.22-54.22,8.27-3.23,25.05,15.71,32.44,34.22,7.67,19.19,7.96,44.71-.44,48Z"/>
  <path class="st0" d="M482.73,771.22c-.26,24.52-12.11,51.27-21.33,50.67-9.62-.63-16.41-30.99-15.8-54.53.51-19.77,6.57-47.97,15.8-48.58,9.3-.62,21.6,26.86,21.33,52.44Z"/>
  <path class="st0" d="M544.07,795.22c-8.09,19.33-26.18,38.23-34.67,34.67-9.38-3.94-7.35-35.39,3.55-58.67,6.7-14.29,20.83-34.23,29.34-31.55,9.26,2.91,11.43,32.47,1.78,55.55Z"/>
</svg>